<svg width="37" height="37" viewBox="0 0 37 37" fill="none" xmlns="http://www.w3.org/2000/svg">
<path d="M35.168 18.6664H13.1287H35.168ZM5.34936 18.6664H2.16699H5.34936ZM35.168 31.0725H24.9145H35.168ZM17.1352 31.0725H2.16699H17.1352ZM35.168 6.2603H29.6291H35.168ZM21.8498 6.2603H2.16699H21.8498ZM25.7386 10.3537C26.2493 10.3537 26.755 10.2479 27.2268 10.0421C27.6986 9.83643 28.1273 9.53491 28.4884 9.1548C28.8495 8.77469 29.1359 8.32343 29.3314 7.82679C29.5268 7.33016 29.6291 6.79786 29.6291 6.2603C29.6291 5.72275 29.5268 5.19045 29.3314 4.69381C29.1359 4.19718 28.8495 3.74592 28.4884 3.36581C28.1273 2.9857 27.6986 2.68418 27.2268 2.47846C26.755 2.27275 26.2493 2.16687 25.7386 2.16687C24.7072 2.16687 23.7181 2.59814 22.9888 3.36581C22.2595 4.13348 21.8498 5.17466 21.8498 6.2603C21.8498 7.34595 22.2595 8.38713 22.9888 9.1548C23.7181 9.92247 24.7072 10.3537 25.7386 10.3537ZM9.23812 22.7598C10.2695 22.7598 11.2586 22.3286 11.9879 21.5609C12.7172 20.7932 13.1287 19.7521 13.1287 18.6664C13.1287 17.5808 12.7172 16.5396 11.9879 15.7719C11.2586 15.0043 10.2695 14.573 9.23812 14.573C8.20675 14.573 7.21763 15.0043 6.48835 15.7719C5.75906 16.5396 5.34936 17.5808 5.34936 18.6664C5.34936 19.7521 5.75906 20.7932 6.48835 21.5609C7.21763 22.3286 8.20675 22.7598 9.23812 22.7598ZM21.0239 35.1678C22.0555 35.1678 23.0449 34.7365 23.7743 33.9686C24.5038 33.2008 24.9145 32.1584 24.9145 31.0725C24.9145 29.9866 24.5038 28.9461 23.7743 28.1783C23.0449 27.4105 22.0555 26.9791 21.0239 26.9791C19.9926 26.9791 19.0034 27.4104 18.2742 28.178C17.5449 28.9457 17.1352 29.9869 17.1352 31.0725C17.1352 32.1582 17.5449 33.1994 18.2742 33.967C19.0034 34.7347 19.9926 35.1678 21.0239 35.1678Z" fill="#B4221D"/>
<path d="M35.168 18.6664H13.1287M13.1287 18.6664C13.1287 19.7521 12.7172 20.7932 11.9879 21.5609C11.2586 22.3286 10.2695 22.7598 9.23812 22.7598C8.20675 22.7598 7.21763 22.3286 6.48835 21.5609C5.75906 20.7932 5.34936 19.7521 5.34936 18.6664M13.1287 18.6664C13.1287 17.5808 12.7172 16.5396 11.9879 15.7719C11.2586 15.0043 10.2695 14.573 9.23812 14.573C8.20675 14.573 7.21763 15.0043 6.48835 15.7719C5.75906 16.5396 5.34936 17.5808 5.34936 18.6664M5.34936 18.6664H2.16699M35.168 31.0725H24.9145M24.9145 31.0725C24.9145 32.1584 24.5038 33.2008 23.7743 33.9686C23.0449 34.7365 22.0555 35.1678 21.0239 35.1678C19.9926 35.1678 19.0034 34.7347 18.2742 33.967C17.5449 33.1994 17.1352 32.1582 17.1352 31.0725M24.9145 31.0725C24.9145 29.9866 24.5038 28.9461 23.7743 28.1783C23.0449 27.4105 22.0555 26.9791 21.0239 26.9791C19.9926 26.9791 19.0034 27.4104 18.2742 28.178C17.5449 28.9457 17.1352 29.9869 17.1352 31.0725M17.1352 31.0725H2.16699M35.168 6.2603H29.6291M29.6291 6.2603C29.6291 6.79786 29.5268 7.33016 29.3313 7.82679C29.1359 8.32343 28.8495 8.77469 28.4884 9.1548C28.1273 9.53491 27.6986 9.83643 27.2268 10.0421C26.755 10.2479 26.2493 10.3537 25.7386 10.3537C24.7072 10.3537 23.7181 9.92247 22.9888 9.1548C22.2595 8.38713 21.8498 7.34595 21.8498 6.2603M29.6291 6.2603C29.6291 5.72275 29.5268 5.19045 29.3313 4.69381C29.1359 4.19718 28.8495 3.74592 28.4884 3.36581C28.1273 2.9857 27.6986 2.68418 27.2268 2.47846C26.755 2.27275 26.2493 2.16687 25.7386 2.16687C24.7072 2.16687 23.7181 2.59814 22.9888 3.36581C22.2595 4.13348 21.8498 5.17466 21.8498 6.2603M21.8498 6.2603H2.16699" stroke="white" stroke-width="2.75001" stroke-miterlimit="10" stroke-linecap="round"/>
</svg>
